<?xml version="1.0" encoding="utf-8"?>
<!-- Generator: Adobe Illustrator 25.0.0, SVG Export Plug-In . SVG Version: 6.00 Build 0)  -->
<svg version="1.1" id="레이어_1" xmlns="http://www.w3.org/2000/svg" xmlns:xlink="http://www.w3.org/1999/xlink" x="0px"
	 y="0px" viewBox="0 0 100 100" style="enable-background:new 0 0 100 100;" xml:space="preserve">
<style type="text/css">
	.st0{fill:none;stroke-width:3px;stroke:#a0a0a0;stroke-miterlimit:10;}
</style>
<g>
	<path class="st0" d="M85.17,86.3l-9.46-16.36c-1.37-2.37-4.41-3.19-6.79-1.81l-7.42,4.3c-2.17,1.25-4.93,0.7-6.44-1.29
		c0,0-4.61-5.19-11.33-16.79c-6.71-11.6-8.91-18.19-8.91-18.19c-0.97-2.31-0.07-4.97,2.1-6.23l7.42-4.29
		c2.38-1.37,3.19-4.42,1.81-6.79L36.69,2.48c-1.38-2.38-4.41-3.19-6.79-1.81c-0.05,0.03-0.88,0.51-9.86,5.71
		c-10.46,6.05-6.29,34.25,7.17,57.53c13.46,23.27,35.84,40.94,46.29,34.9c8.98-5.2,9.81-5.68,9.86-5.71
		C85.74,91.72,86.55,88.68,85.17,86.3z"/>
</g>
</svg> 